<?xml version="1.0" standalone="no"?>
<!DOCTYPE svg PUBLIC "-//W3C//DTD SVG 20010904//EN"
 "http://www.w3.org/TR/2001/REC-SVG-20010904/DTD/svg10.dtd">
<svg version="1.0" xmlns="http://www.w3.org/2000/svg"
 width="260.000000pt" height="260.000000pt" viewBox="0 0 260.000000 260.000000"
 preserveAspectRatio="xMidYMid meet">
<metadata>
Created by potrace 1.11, written by Peter Selinger 2001-2013
</metadata>
<g transform="translate(0.000000,260.000000) scale(0.100000,-0.100000)"
fill="#000000" stroke="none">
<path d="M1193 2349 c-86 -16 -137 -61 -173 -156 -14 -35 -23 -47 -37 -46 -66
9 -91 6 -113 -15 -13 -12 -25 -28 -26 -35 -1 -6 -10 -30 -19 -52 -28 -65 -22
-184 14 -291 17 -49 32 -106 34 -127 4 -35 3 -37 -13 -22 -9 8 -28 15 -43 15
-44 0 -51 -54 -17 -140 10 -25 21 -68 25 -97 7 -57 32 -88 62 -79 16 5 19 0
21 -39 1 -25 13 -74 27 -109 22 -56 25 -74 21 -156 -3 -64 -9 -97 -20 -109 -9
-10 -16 -22 -16 -27 0 -6 -42 -31 -92 -57 -51 -26 -151 -78 -223 -115 -71 -38
-172 -90 -223 -117 -51 -27 -106 -64 -123 -83 -24 -27 -106 -177 -108 -197 -1
-3 -8 -22 -16 -42 -24 -58 -54 -164 -58 -210 l-4 -43 1224 0 1223 0 -6 28
c-23 104 -90 306 -117 351 -57 95 -133 164 -247 222 -36 18 -163 91 -284 162
-120 70 -224 126 -231 123 -20 -7 -31 33 -34 124 -2 69 2 95 19 135 20 45 26
84 29 184 1 28 3 31 15 22 11 -9 20 -10 35 -1 12 6 21 14 22 18 1 4 3 38 5 77
2 38 9 86 15 107 16 61 2 85 -48 79 -13 -2 -10 7 25 107 11 31 18 73 17 100
-2 27 3 54 11 68 20 30 10 79 -26 125 -17 20 -30 48 -30 62 0 20 -6 27 -28 32
-16 3 -49 24 -73 45 -91 82 -228 159 -314 178 -22 4 -59 5 -82 1z"/>
</g>
</svg>
