<svg width="250" height="250" viewBox="0 0 250 250" fill="none" xmlns="http://www.w3.org/2000/svg">
<g clip-path="url(#clip0)">
<path d="M156.939 166.256C156.939 166.256 153.899 162.476 153.899 161.256C153.899 160.036 153.099 136.596 153.099 136.596H92.9187C92.9187 136.596 92.5187 161.836 91.3587 163.256C88.3087 166.646 86.9912 170.6 85.4587 174.896C82.1787 182.896 93.0587 192.376 98.3787 194.656C109.639 199.496 125.579 199.396 137.619 196.536C146.714 194.382 154.88 189.37 160.919 182.236C164.559 177.476 165.359 170.816 156.939 166.256Z" fill="#FCE7D4" stroke="#020202" stroke-width="0.75" stroke-miterlimit="10"/>
<path d="M158.319 113.256C158.319 113.256 157.979 131.876 157.619 133.256C157.008 135.705 156.658 138.091 155.359 140.256C152.141 145.365 148.239 150.629 144.359 155.256C142.519 157.256 137.359 162.216 134.999 162.916C131.27 163.939 127.441 164.556 123.579 164.756C121.139 164.616 112.359 163.436 110.419 162.256C108.479 161.076 100.799 155.556 95.3586 148.256C89.9186 140.956 88.0787 132.736 87.6987 130.896C87.3788 128.093 87.2052 125.276 87.1787 122.456L86.2387 122.696C86.2387 122.696 86.1187 124.556 84.4987 124.696C82.1787 124.996 80.7787 122.076 80.1787 120.276C79.1587 117.276 79.5987 113.996 78.5387 110.996C77.4787 107.996 72.5387 97.5756 76.5387 94.9956C79.9387 92.6756 82.9787 95.9556 84.0987 98.9956C84.4489 100.037 84.7361 101.099 84.9587 102.176L85.6187 102.016C85.6187 102.016 85.6187 96.2156 85.6187 92.1356C85.7987 84.5756 83.4787 76.1356 86.3187 68.7956C95.6587 44.6356 104.499 43.7356 126.179 43.0156C145.359 42.4356 156.159 58.1356 157.619 65.2556C158.921 71.0079 159.506 76.8995 159.359 82.7956C159.079 88.1157 158.359 101.376 158.359 101.376L158.979 101.516C159.697 99.3046 160.552 97.1404 161.539 95.0356C161.91 94.2705 162.558 93.6748 163.352 93.3686C164.145 93.0624 165.025 93.0685 165.814 93.3856C166.604 93.7028 167.243 94.3075 167.604 95.0777C167.965 95.8479 168.02 96.7263 167.759 97.5356C167.179 99.5356 166.159 105.536 165.759 108.036C165.609 109.806 165.609 111.585 165.759 113.356C165.759 114.956 165.059 120.576 162.679 120.496C161.179 120.476 157.579 120.556 158.319 113.256Z" fill="#FCE7D4" stroke="#020202" stroke-width="0.75" stroke-miterlimit="10"/>
<path d="M242 250C242 250 236 224.54 231.44 215.7C225.951 205.561 217.328 197.472 206.86 192.64C195.6 187.54 157.44 163.26 157.44 164.64C157.655 168.736 157.059 172.833 155.686 176.698C154.314 180.563 152.191 184.118 149.44 187.16C141.44 195.74 113.08 193.16 102.26 187.92C99.2722 186.53 96.653 184.458 94.6136 181.87C92.5743 179.281 91.172 176.25 90.52 173.02C89.86 171.02 89.08 167.78 89.08 167.78C89.08 167.78 45.08 190.9 40.22 193.26C35.36 195.62 28.22 198.64 23.66 204.46C19.1 210.28 10.26 232.8 8.82 239.44C7.99206 242.898 7.58908 246.444 7.62 250" fill="#202133"/>
<path d="M242 250C242 250 236 224.54 231.44 215.7C225.951 205.561 217.328 197.472 206.86 192.64C195.6 187.54 157.44 163.26 157.44 164.64C157.655 168.736 157.059 172.833 155.686 176.698C154.314 180.563 152.191 184.118 149.44 187.16C141.44 195.74 113.08 193.16 102.26 187.92C99.2722 186.53 96.653 184.458 94.6136 181.87C92.5743 179.281 91.172 176.25 90.52 173.02C89.86 171.02 89.08 167.78 89.08 167.78C89.08 167.78 45.08 190.9 40.22 193.26C35.36 195.62 28.22 198.64 23.66 204.46C19.1 210.28 10.26 232.8 8.82 239.44C7.99206 242.898 7.58908 246.444 7.62 250" stroke="black" stroke-width="0.75" stroke-miterlimit="10"/>
<path d="M96.48 45.1C96.48 45.1 99.76 31.1 107.6 26.88C117.24 21.56 126.08 24.88 134.78 29.22C141.785 32.7462 148.212 37.3186 153.84 42.78C160.2 48.5 168 58.36 168.42 60C168.732 61.82 168.732 63.68 168.42 65.5C168.2 66.56 166.12 68.16 166.12 68.16C166.12 68.16 167.48 79.46 164.64 84.16C160.84 90.62 160.64 99.94 159.98 102.26C159.32 104.58 158.5 103.74 158.5 103.46C158.5 103.18 158.68 83.84 157.98 81.46C157.28 79.08 155.54 76.8 156.38 74.9C157.038 72.6949 157.428 70.4184 157.54 68.12C157.54 68.12 148.86 61.66 146.96 60.34C145.06 59.02 138.38 55.3 135.1 55.2C131.626 55.0092 128.145 55.4358 124.82 56.46C121.1 57.64 120.3 59.96 119.24 59.86C118.18 59.76 113.24 55.86 106.48 55.62C99.72 55.38 96.22 55.52 93.46 58.38C90.7 61.24 88.06 64.2 88.48 69.38C88.9 74.56 88.7 75.86 88.48 76.8C87.6537 78.5817 87.0944 80.4753 86.82 82.42C86.82 84.42 87.04 103.6 86.82 104.24C86.6 104.88 85.88 104.02 85.34 102.24C84.8 100.46 83.96 91.24 83.76 89.44C83.56 87.64 78.78 76.94 78.46 72.06C78.14 67.18 76.76 60.82 79.2 54.58C81.64 48.34 83.86 45.2 85.88 43.62C87.9 42.04 94.58 43.8 96.48 45.1Z" fill="#8E570E" stroke="black" stroke-width="0.75" stroke-miterlimit="10"/>
<path d="M121 131C118.756 130.633 116 131 116 131C114.057 131.518 112.734 131.711 112 132C111.266 132.289 105.221 142.356 110.566 139.217C112.114 138.308 111.949 138.591 113 138C114.051 137.409 113.919 138.64 116 139.217C118.081 139.794 120.678 142.268 121 142.376C121.322 142.484 123.766 142.049 125 142C126.101 141.965 126.596 141.684 127.661 142C128.672 142.275 129.244 141.864 129.744 142.376C130.243 142.889 132 142.627 132 142.627C132 142.627 135.489 144.445 135.63 144.165C135.851 143.68 136.004 142.627 136.004 142.627C134.735 141 133.584 139.079 132 137C130.625 135.048 129.933 135.515 128 134C125.596 132.13 124.352 130.24 121 131Z" fill="#8E570E" stroke="black" stroke-width="0.75" stroke-miterlimit="10"/>
<path d="M123.38 113.4C123.38 113.4 135.96 109.1 134.76 116.54C133.56 123.98 122 123 122 123" fill="#FCE7D4"/>
<path d="M123.38 113.4C123.38 113.4 135.96 109.1 134.76 116.54C133.56 123.98 122 123 122 123" stroke="#020202" stroke-width="0.75" stroke-miterlimit="10"/>
<path d="M132.187 144.058C132.187 144.058 125.828 145.861 122.62 145.401C119.413 144.941 114.211 140.417 111.606 139.916" stroke="#020202" stroke-width="0.75" stroke-miterlimit="10"/>
<path d="M94.7399 129.32V130.62" stroke="black" stroke-width="0.75" stroke-miterlimit="10"/>
<path d="M94.14 117.98V119.3" stroke="black" stroke-width="0.75" stroke-miterlimit="10"/>
<path d="M110.94 146.68V148" stroke="black" stroke-width="0.75" stroke-miterlimit="10"/>
<path d="M108.74 131.28V132.58" stroke="black" stroke-width="0.75" stroke-miterlimit="10"/>
<path d="M102.72 140.76V142.08" stroke="black" stroke-width="0.75" stroke-miterlimit="10"/>
<path d="M90.46 112.02V113.32" stroke="black" stroke-width="0.75" stroke-miterlimit="10"/>
<path d="M155.3 110.02V111.32" stroke="black" stroke-width="0.75" stroke-miterlimit="10"/>
<path d="M150.66 119.36V120.66" stroke="black" stroke-width="0.75" stroke-miterlimit="10"/>
<path d="M143.18 132.02V133.32" stroke="black" stroke-width="0.75" stroke-miterlimit="10"/>
<path d="M142.96 140.48V141.8" stroke="black" stroke-width="0.75" stroke-miterlimit="10"/>
<path d="M130.6 155.5V156.82" stroke="black" stroke-width="0.75" stroke-miterlimit="10"/>
<path d="M117.46 157.46V158.76" stroke="black" stroke-width="0.75" stroke-miterlimit="10"/>
<path d="M121.38 152.26V153.56" stroke="black" stroke-width="0.75" stroke-miterlimit="10"/>
<path d="M148.08 134.62V135.94" stroke="black" stroke-width="0.75" stroke-miterlimit="10"/>
<path d="M154.68 130.62V131.94" stroke="black" stroke-width="0.75" stroke-miterlimit="10"/>
<path d="M142 146V147.32" stroke="black" stroke-width="0.75" stroke-miterlimit="10"/>
<path d="M110.9 92.9C110.9 95.56 109.8 97.72 108.44 97.72C107.08 97.72 106 95.56 106 92.9C106 90.24 106 88 108.44 88C110.12 88 110.9 90.24 110.9 92.9Z" fill="white" stroke="#020202" stroke-width="0.75" stroke-miterlimit="10"/>
<path d="M142.56 92C142.56 94.88 141.46 97.2 140.1 97.2C138.74 97.2 137.64 94.88 137.64 92C137.64 89.12 137.64 86.8 140.1 86.8C141.78 86.82 142.56 89.14 142.56 92Z" fill="white" stroke="#020202" stroke-width="0.75" stroke-miterlimit="10"/>
<path d="M98.4793 101.84C99.7977 100.972 101.359 100.55 102.935 100.636C105.059 101.031 107.862 102.693 108.114 104.286" stroke="#020202" stroke-width="0.75" stroke-miterlimit="10"/>
<path d="M148.892 103.388C147.08 102.236 145.021 101.529 142.883 101.325C141.903 101.51 140.976 101.909 140.167 102.492C139.357 103.075 138.686 103.828 138.199 104.699" stroke="#020202" stroke-width="0.75" stroke-miterlimit="10"/>
<path d="M130 78.66C130 78.66 133.82 74.86 137.62 74.86C141.42 74.86 143.34 78.66 147.16 80.56" stroke="#020202" stroke-width="0.75" stroke-miterlimit="10"/>
<path d="M118.52 80.56C116.81 79.0191 114.883 77.7387 112.8 76.76C110.978 75.6787 108.833 75.2764 106.743 75.6241C104.653 75.9718 102.754 77.0471 101.38 78.66C97.58 82.48 97.58 82.48 95.66 82.48" stroke="#020202" stroke-width="0.75" stroke-miterlimit="10"/>
<path d="M162.66 46.24C157.279 45.3037 151.821 44.8885 146.36 45C139.866 45.731 133.426 46.8801 127.08 48.44C125.485 48.8949 123.838 49.1436 122.18 49.18C119.935 48.9368 117.719 48.4814 115.56 47.82C111.258 46.689 106.88 45.8669 102.46 45.36C97.2766 44.9496 92.0715 44.8895 86.88 45.18C81.9 45.74 81.22 46.18 81.28 46.62L82.08 51.52C82.4486 51.6367 82.8094 51.777 83.16 51.94C83.5397 52.1861 83.8442 52.5321 84.04 52.94C84.24 53.44 87.16 63.34 87.34 63.82C87.693 64.8557 88.2431 65.8133 88.96 66.64C90.1812 67.8161 91.6219 68.7403 93.2 69.36C95.0044 69.9965 96.8772 70.4194 98.78 70.62C100.971 70.8441 103.182 70.7904 105.36 70.46C107.775 69.984 110.047 68.9574 112 67.46C113.79 65.7753 115.302 63.8178 116.48 61.66C117.12 60.18 119.16 55.4 119.58 54.82C119.912 54.4652 120.316 54.184 120.763 53.9945C121.211 53.8051 121.694 53.7116 122.18 53.72C122.742 53.7074 123.296 53.8573 123.775 54.1518C124.254 54.4463 124.638 54.8728 124.88 55.38C125.44 56.52 127.18 60.96 128.5 63.22C129.331 64.8728 130.501 66.3312 131.935 67.4997C133.369 68.6682 135.034 69.5202 136.82 70C140.892 71.1643 145.208 71.1643 149.28 70C150.986 69.5632 152.59 68.7953 154 67.74C154.927 66.864 155.716 65.8525 156.34 64.74C156.94 63.48 158.84 56.74 158.98 55.98C159.282 54.685 159.782 53.4439 160.46 52.3C160.917 51.9651 161.423 51.702 161.96 51.52L162.78 46.62C162.774 46.4851 162.732 46.3542 162.66 46.24ZM113.1 60C112.134 62.2221 110.78 64.254 109.1 66C106.468 67.6731 103.336 68.3801 100.24 68C97.5025 67.9836 94.8108 67.297 92.4 66C90.7 65.24 89.96 63.04 89.16 60.96C88.4128 58.1507 88.0959 55.2444 88.22 52.34C88.2107 52.2336 88.2107 52.1265 88.22 52.02C88.2812 51.2388 88.6476 50.5131 89.24 50C91.24 48.16 94.24 48.22 96.7 48.1C99.5416 47.9728 102.389 48.1268 105.2 48.56C107.9 48.98 113.84 49.62 114.3 53.26C114.199 55.5498 113.795 57.8161 113.1 60ZM154.54 61.08C153.74 63.08 153 65.36 151.3 66.12C148.888 67.4139 146.197 68.1004 143.46 68.12C140.364 68.5001 137.232 67.7931 134.6 66.12C132.918 64.3761 131.563 62.3438 130.6 60.12C129.763 58.0427 129.348 55.8194 129.38 53.58C129.74 50.74 133.54 49.58 135.96 49.06C139.261 48.3591 142.626 48.0039 146 48C148.62 48.1 152.28 48 154.4 50C154.704 50.278 154.949 50.6142 155.121 50.9887C155.293 51.3631 155.388 51.7682 155.4 52.18V52.5C155.545 55.3738 155.256 58.253 154.54 61.04V61.08Z" fill="black"/>
<g opacity="0.7">
<path opacity="0.7" d="M89.24 50C88.9344 50.2799 88.6898 50.6196 88.5212 50.9981C88.3526 51.3766 88.2637 51.7857 88.26 52.2C88.2494 52.3064 88.2494 52.4136 88.26 52.52C88.1357 55.4178 88.4527 58.3176 89.2 61.12C90 63.12 90.74 65.4 92.44 66.16C94.843 67.4767 97.5399 68.1646 100.28 68.16C103.376 68.5503 106.512 67.8426 109.14 66.16C110.821 64.4153 112.176 62.3831 113.14 60.16C113.839 57.9632 114.242 55.6832 114.34 53.38C113.88 49.74 107.94 49.08 105.24 48.66C102.422 48.1571 99.5615 47.9361 96.7 48C94.24 48.16 91.16 48.12 89.24 50Z" fill="black"/>
</g>
<g opacity="0.7">
<path opacity="0.7" d="M154.46 50C154.765 50.2818 155.01 50.6215 155.182 50.9993C155.353 51.377 155.448 51.7853 155.46 52.2V52.52C155.59 55.4167 155.28 58.3164 154.54 61.12C153.74 63.12 153 65.38 151.3 66.14C148.896 67.4534 146.2 68.1412 143.46 68.14C140.364 68.5303 137.228 67.8226 134.6 66.14C132.918 64.3961 131.563 62.3638 130.6 60.14C129.761 58.0632 129.347 55.8396 129.38 53.6C129.74 50.76 133.54 49.6 135.96 49.1C139.25 48.4222 142.601 48.0871 145.96 48.1C148.68 48 152.34 48 154.46 50Z" fill="black"/>
</g>
</g>
<defs>
<clipPath id="clip0">
<rect width="250" height="250" fill="white"/>
</clipPath>
</defs>
</svg>
